<svg width="197" height="26" viewBox="0 0 197 26" fill="none" xmlns="http://www.w3.org/2000/svg">
<path d="M1.32102 17.4249V6.51584H5.0071C5.86293 6.51584 6.5625 6.67031 7.10582 6.97926C7.6527 7.28466 8.05753 7.69836 8.32031 8.22038C8.5831 8.7424 8.71449 9.32478 8.71449 9.96754C8.71449 10.6103 8.5831 11.1945 8.32031 11.72C8.06108 12.2456 7.6598 12.6646 7.11648 12.9771C6.57315 13.2861 5.87713 13.4406 5.02841 13.4406H2.38636V12.2687H4.9858C5.57173 12.2687 6.04226 12.1675 6.39737 11.9651C6.75249 11.7626 7.00994 11.4892 7.16974 11.1447C7.3331 10.7967 7.41477 10.4043 7.41477 9.96754C7.41477 9.53075 7.3331 9.14013 7.16974 8.79566C7.00994 8.4512 6.75071 8.18132 6.39205 7.98601C6.03338 7.78714 5.55753 7.68771 4.96449 7.68771H2.64205V17.4249H1.32102ZM13.908 17.5954C13.1694 17.5954 12.5213 17.4196 11.9638 17.068C11.4098 16.7165 10.9766 16.2246 10.6641 15.5925C10.3551 14.9604 10.2006 14.2218 10.2006 13.3766C10.2006 12.5244 10.3551 11.7804 10.6641 11.1447C10.9766 10.5091 11.4098 10.0155 11.9638 9.66392C12.5213 9.31236 13.1694 9.13657 13.908 9.13657C14.6467 9.13657 15.293 9.31236 15.8469 9.66392C16.4045 10.0155 16.8377 10.5091 17.1467 11.1447C17.4592 11.7804 17.6154 12.5244 17.6154 13.3766C17.6154 14.2218 17.4592 14.9604 17.1467 15.5925C16.8377 16.2246 16.4045 16.7165 15.8469 17.068C15.293 17.4196 14.6467 17.5954 13.908 17.5954ZM13.908 16.4661C14.4691 16.4661 14.9308 16.3223 15.293 16.0347C15.6552 15.747 15.9233 15.3688 16.0973 14.9001C16.2713 14.4313 16.3583 13.9235 16.3583 13.3766C16.3583 12.8298 16.2713 12.3202 16.0973 11.8479C15.9233 11.3756 15.6552 10.9938 15.293 10.7026C14.9308 10.4114 14.4691 10.2658 13.908 10.2658C13.3469 10.2658 12.8853 10.4114 12.5231 10.7026C12.1609 10.9938 11.8928 11.3756 11.7188 11.8479C11.5447 12.3202 11.4577 12.8298 11.4577 13.3766C11.4577 13.9235 11.5447 14.4313 11.7188 14.9001C11.8928 15.3688 12.1609 15.747 12.5231 16.0347C12.8853 16.3223 13.3469 16.4661 13.908 16.4661ZM21.1097 17.4249L18.6168 9.24311H19.9379L21.7063 15.5073H21.7915L23.5387 9.24311H24.881L26.6069 15.486H26.6921L28.4606 9.24311H29.7816L27.2887 17.4249H26.0529L24.2631 11.1394H24.1353L22.3455 17.4249H21.1097ZM34.5956 17.5954C33.8073 17.5954 33.1272 17.4214 32.5555 17.0734C31.9873 16.7218 31.5487 16.2317 31.2398 15.6032C30.9344 14.9711 30.7817 14.236 30.7817 13.3979C30.7817 12.5599 30.9344 11.8212 31.2398 11.182C31.5487 10.5393 31.9784 10.0386 32.5289 9.6799C33.0828 9.31768 33.7291 9.13657 34.4678 9.13657C34.8939 9.13657 35.3147 9.2076 35.7302 9.34964C36.1457 9.49169 36.5239 9.72251 36.8648 10.0421C37.2057 10.3582 37.4774 10.7772 37.6798 11.2992C37.8822 11.8212 37.9834 12.464 37.9834 13.2275V13.7602H31.6766V12.6735H36.705C36.705 12.2119 36.6127 11.7999 36.428 11.4377C36.2469 11.0755 35.9877 10.7896 35.6503 10.5801C35.3165 10.3706 34.9223 10.2658 34.4678 10.2658C33.9671 10.2658 33.5338 10.3901 33.1681 10.6387C32.8058 10.8837 32.5271 11.2033 32.3318 11.5975C32.1365 11.9917 32.0388 12.4143 32.0388 12.8653V13.5897C32.0388 14.2076 32.1453 14.7314 32.3584 15.1611C32.575 15.5872 32.8751 15.9121 33.2586 16.1359C33.6421 16.356 34.0878 16.4661 34.5956 16.4661C34.9259 16.4661 35.2242 16.42 35.4905 16.3276C35.7604 16.2317 35.993 16.0897 36.1883 15.9015C36.3836 15.7097 36.5345 15.4718 36.6411 15.1877L37.8556 15.5286C37.7277 15.9406 37.5129 16.3028 37.211 16.6153C36.9092 16.9242 36.5363 17.1657 36.0924 17.3397C35.6485 17.5102 35.1496 17.5954 34.5956 17.5954ZM39.8957 17.4249V9.24311H41.1102V10.4789H41.1954C41.3445 10.0741 41.6144 9.74559 42.0051 9.49346C42.3957 9.24133 42.836 9.11527 43.3261 9.11527C43.4184 9.11527 43.5338 9.11704 43.6723 9.12059C43.8108 9.12415 43.9156 9.12947 43.9866 9.13657V10.415C43.944 10.4043 43.8463 10.3883 43.6936 10.367C43.5445 10.3422 43.3865 10.3298 43.2195 10.3298C42.8218 10.3298 42.4667 10.4132 42.1542 10.5801C41.8453 10.7435 41.6002 10.9707 41.4191 11.2619C41.2416 11.5496 41.1528 11.8781 41.1528 12.2474V17.4249H39.8957ZM48.6581 17.5954C47.8698 17.5954 47.1897 17.4214 46.618 17.0734C46.0498 16.7218 45.6112 16.2317 45.3023 15.6032C44.9969 14.9711 44.8442 14.236 44.8442 13.3979C44.8442 12.5599 44.9969 11.8212 45.3023 11.182C45.6112 10.5393 46.0409 10.0386 46.5914 9.6799C47.1453 9.31768 47.7916 9.13657 48.5303 9.13657C48.9564 9.13657 49.3772 9.2076 49.7927 9.34964C50.2082 9.49169 50.5864 9.72251 50.9273 10.0421C51.2682 10.3582 51.5399 10.7772 51.7423 11.2992C51.9447 11.8212 52.0459 12.464 52.0459 13.2275V13.7602H45.7391V12.6735H50.7675C50.7675 12.2119 50.6752 11.7999 50.4905 11.4377C50.3094 11.0755 50.0502 10.7896 49.7128 10.5801C49.379 10.3706 48.9848 10.2658 48.5303 10.2658C48.0296 10.2658 47.5963 10.3901 47.2306 10.6387C46.8683 10.8837 46.5896 11.2033 46.3943 11.5975C46.199 11.9917 46.1013 12.4143 46.1013 12.8653V13.5897C46.1013 14.2076 46.2078 14.7314 46.4209 15.1611C46.6375 15.5872 46.9376 15.9121 47.3211 16.1359C47.7046 16.356 48.1503 16.4661 48.6581 16.4661C48.9884 16.4661 49.2867 16.42 49.553 16.3276C49.8229 16.2317 50.0555 16.0897 50.2508 15.9015C50.4461 15.7097 50.597 15.4718 50.7036 15.1877L51.9181 15.5286C51.7902 15.9406 51.5754 16.3028 51.2735 16.6153C50.9717 16.9242 50.5988 17.1657 50.1549 17.3397C49.711 17.5102 49.2121 17.5954 48.6581 17.5954ZM57.0477 17.5954C56.3659 17.5954 55.7639 17.4232 55.2419 17.0787C54.7199 16.7307 54.3115 16.2406 54.0168 15.6085C53.722 14.9729 53.5747 14.2218 53.5747 13.3553C53.5747 12.4959 53.722 11.7502 54.0168 11.1181C54.3115 10.486 54.7217 9.99772 55.2472 9.65326C55.7728 9.3088 56.3801 9.13657 57.069 9.13657C57.6017 9.13657 58.0225 9.22535 58.3314 9.40291C58.6439 9.57692 58.8818 9.77578 59.0452 9.9995C59.2121 10.2197 59.3417 10.4008 59.434 10.5428H59.5406V6.51584H60.7977V17.4249H59.5832V16.1678H59.434C59.3417 16.317 59.2103 16.5052 59.0399 16.7325C58.8694 16.9562 58.6262 17.1568 58.3101 17.3344C57.9941 17.5084 57.5732 17.5954 57.0477 17.5954ZM57.2181 16.4661C57.7224 16.4661 58.1485 16.3347 58.4965 16.0719C58.8445 15.8056 59.1091 15.4381 59.2902 14.9693C59.4713 14.497 59.5619 13.9519 59.5619 13.334C59.5619 12.7232 59.4731 12.1888 59.2955 11.7307C59.118 11.269 58.8552 10.9104 58.5072 10.6547C58.1592 10.3955 57.7295 10.2658 57.2181 10.2658C56.6855 10.2658 56.2416 10.4026 55.8865 10.676C55.5349 10.9459 55.2703 11.3134 55.0928 11.7786C54.9188 12.2403 54.8318 12.7587 54.8318 13.334C54.8318 13.9164 54.9205 14.4455 55.0981 14.9214C55.2792 15.3937 55.5455 15.7701 55.8971 16.0506C56.2522 16.3276 56.6926 16.4661 57.2181 16.4661ZM67.6638 17.4249V6.51584H68.9209V10.5428H69.0274C69.1198 10.4008 69.2476 10.2197 69.411 9.9995C69.5779 9.77578 69.8158 9.57692 70.1247 9.40291C70.4372 9.22535 70.8598 9.13657 71.3925 9.13657C72.0814 9.13657 72.6887 9.3088 73.2142 9.65326C73.7398 9.99772 74.1499 10.486 74.4447 11.1181C74.7394 11.7502 74.8868 12.4959 74.8868 13.3553C74.8868 14.2218 74.7394 14.9729 74.4447 15.6085C74.1499 16.2406 73.7416 16.7307 73.2195 17.0787C72.6975 17.4232 72.0956 17.5954 71.4138 17.5954C70.8882 17.5954 70.4674 17.5084 70.1514 17.3344C69.8353 17.1568 69.5921 16.9562 69.4216 16.7325C69.2512 16.5052 69.1198 16.317 69.0274 16.1678H68.8783V17.4249H67.6638ZM68.8996 13.334C68.8996 13.9519 68.9901 14.497 69.1713 14.9693C69.3524 15.4381 69.6169 15.8056 69.9649 16.0719C70.3129 16.3347 70.7391 16.4661 71.2433 16.4661C71.7689 16.4661 72.2075 16.3276 72.559 16.0506C72.9142 15.7701 73.1805 15.3937 73.358 14.9214C73.5392 14.4455 73.6297 13.9164 73.6297 13.334C73.6297 12.7587 73.5409 12.2403 73.3634 11.7786C73.1894 11.3134 72.9248 10.9459 72.5697 10.676C72.2181 10.4026 71.776 10.2658 71.2433 10.2658C70.732 10.2658 70.3023 10.3955 69.9543 10.6547C69.6063 10.9104 69.3435 11.269 69.1659 11.7307C68.9884 12.1888 68.8996 12.7232 68.8996 13.334ZM77.3264 20.4931C77.1134 20.4931 76.9234 20.4754 76.7565 20.4398C76.5896 20.4079 76.4742 20.3759 76.4102 20.344L76.7298 19.236C77.0352 19.3141 77.3051 19.3425 77.5395 19.3212C77.7739 19.2999 77.9816 19.1952 78.1627 19.007C78.3474 18.8223 78.5161 18.5222 78.6688 18.1067L78.9031 17.4675L75.8776 9.24311H77.2412L79.4997 15.763H79.585L81.8435 9.24311H83.2071L79.7341 18.6181C79.5779 19.0407 79.3843 19.3905 79.1535 19.6675C78.9227 19.948 78.6546 20.1558 78.3492 20.2907C78.0473 20.4256 77.7064 20.4931 77.3264 20.4931Z" fill="white"/>
<path d="M130.521 16.985V6.07589H134.335C135.095 6.07589 135.722 6.20729 136.215 6.47007C136.709 6.7293 137.076 7.07909 137.318 7.51943C137.559 7.95622 137.68 8.44095 137.68 8.97362C137.68 9.44237 137.597 9.82945 137.43 10.1348C137.266 10.4402 137.05 10.6817 136.78 10.8593C136.514 11.0368 136.224 11.1682 135.912 11.2535V11.36C136.246 11.3813 136.581 11.4985 136.918 11.7115C137.256 11.9246 137.538 12.23 137.765 12.6277C137.993 13.0255 138.106 13.512 138.106 14.0873C138.106 14.6341 137.982 15.126 137.733 15.5628C137.485 15.9995 137.092 16.3458 136.556 16.6015C136.02 16.8571 135.322 16.985 134.463 16.985H130.521ZM131.842 15.8131H134.463C135.326 15.8131 135.938 15.6462 136.301 15.3124C136.666 14.975 136.849 14.5667 136.849 14.0873C136.849 13.7179 136.755 13.377 136.567 13.0645C136.379 12.7485 136.111 12.4963 135.763 12.3081C135.415 12.1164 135.003 12.0205 134.527 12.0205H131.842V15.8131ZM131.842 10.8699H134.292C134.69 10.8699 135.049 10.7918 135.368 10.6356C135.692 10.4793 135.947 10.2591 136.135 9.97504C136.327 9.69095 136.423 9.35714 136.423 8.97362C136.423 8.49422 136.256 8.08761 135.922 7.75381C135.589 7.41645 135.059 7.24777 134.335 7.24777H131.842V10.8699ZM142.514 17.1767C141.996 17.1767 141.525 17.0791 141.103 16.8838C140.68 16.6849 140.344 16.399 140.096 16.0262C139.847 15.6498 139.723 15.1952 139.723 14.6625C139.723 14.1938 139.815 13.8138 140 13.5226C140.185 13.2279 140.431 12.9971 140.74 12.8302C141.049 12.6633 141.39 12.539 141.763 12.4573C142.14 12.3721 142.518 12.3046 142.898 12.2549C143.395 12.191 143.798 12.143 144.107 12.1111C144.419 12.0755 144.647 12.0169 144.789 11.9353C144.934 11.8536 145.007 11.7115 145.007 11.5091V11.4665C145.007 10.941 144.863 10.5326 144.576 10.2414C144.292 9.95018 143.86 9.80459 143.281 9.80459C142.681 9.80459 142.211 9.93598 141.87 10.1988C141.529 10.4615 141.289 10.7421 141.151 11.0404L139.957 10.6142C140.17 10.1171 140.455 9.73001 140.81 9.45303C141.168 9.17249 141.559 8.97717 141.982 8.86709C142.408 8.75345 142.827 8.69663 143.239 8.69663C143.501 8.69663 143.803 8.72859 144.144 8.79251C144.489 8.85288 144.821 8.97895 145.14 9.17071C145.463 9.36247 145.732 9.65189 145.945 10.039C146.158 10.426 146.264 10.9445 146.264 11.5944V16.985H145.007V15.877H144.943C144.858 16.0546 144.716 16.2446 144.517 16.447C144.318 16.6494 144.054 16.8216 143.723 16.9637C143.393 17.1057 142.99 17.1767 142.514 17.1767ZM142.706 16.0475C143.203 16.0475 143.622 15.9498 143.963 15.7545C144.307 15.5592 144.567 15.3071 144.741 14.9981C144.918 14.6892 145.007 14.3642 145.007 14.0233V12.8728C144.954 12.9367 144.837 12.9953 144.656 13.0486C144.478 13.0983 144.272 13.1427 144.038 13.1817C143.807 13.2172 143.581 13.2492 143.361 13.2776C143.144 13.3025 142.969 13.3238 142.834 13.3415C142.507 13.3841 142.202 13.4534 141.918 13.5493C141.637 13.6416 141.41 13.7819 141.236 13.9701C141.065 14.1547 140.98 14.4069 140.98 14.7265C140.98 15.1633 141.142 15.4935 141.465 15.7172C141.792 15.9374 142.205 16.0475 142.706 16.0475ZM148.559 16.985V8.80317H149.773V10.039H149.858C150.008 9.63413 150.277 9.30565 150.668 9.05352C151.059 8.80139 151.499 8.67533 151.989 8.67533C152.081 8.67533 152.197 8.6771 152.335 8.68065C152.474 8.6842 152.579 8.68953 152.65 8.69663V9.97504C152.607 9.96439 152.509 9.94841 152.357 9.9271C152.207 9.90224 152.049 9.88981 151.883 9.88981C151.485 9.88981 151.13 9.97327 150.817 10.1402C150.508 10.3035 150.263 10.5308 150.082 10.822C149.905 11.1096 149.816 11.4381 149.816 11.8074V16.985H148.559ZM157.193 20.2236C156.586 20.2236 156.064 20.1455 155.627 19.9892C155.19 19.8365 154.826 19.6341 154.535 19.382C154.248 19.1334 154.019 18.8671 153.848 18.583L154.849 17.8799C154.963 18.029 155.107 18.1995 155.281 18.3912C155.455 18.5865 155.693 18.7552 155.995 18.8973C156.3 19.0429 156.7 19.1157 157.193 19.1157C157.854 19.1157 158.399 18.9559 158.829 18.6363C159.258 18.3167 159.473 17.816 159.473 17.1341V15.4722H159.367C159.274 15.6213 159.143 15.806 158.972 16.0262C158.805 16.2428 158.564 16.4363 158.248 16.6068C157.935 16.7737 157.513 16.8571 156.98 16.8571C156.32 16.8571 155.727 16.7009 155.201 16.3884C154.679 16.0759 154.265 15.6213 153.96 15.0248C153.658 14.4282 153.507 13.7037 153.507 12.8515C153.507 12.0134 153.655 11.2836 153.949 10.6622C154.244 10.0372 154.654 9.55423 155.18 9.21332C155.705 8.86886 156.313 8.69663 157.001 8.69663C157.534 8.69663 157.957 8.78541 158.269 8.96297C158.585 9.13697 158.827 9.33584 158.994 9.55956C159.164 9.77973 159.296 9.96084 159.388 10.1029H159.516V8.80317H160.73V17.2194C160.73 17.9225 160.57 18.4942 160.251 18.9346C159.935 19.3785 159.509 19.7034 158.972 19.9093C158.44 20.1189 157.847 20.2236 157.193 20.2236ZM157.151 15.7279C157.655 15.7279 158.081 15.6125 158.429 15.3816C158.777 15.1508 159.042 14.8188 159.223 14.3856C159.404 13.9523 159.494 13.4338 159.494 12.8302C159.494 12.2407 159.406 11.7204 159.228 11.2694C159.05 10.8184 158.788 10.4651 158.44 10.2094C158.092 9.95374 157.662 9.82589 157.151 9.82589C156.618 9.82589 156.174 9.96084 155.819 10.2307C155.467 10.5006 155.203 10.8628 155.025 11.3174C154.851 11.7719 154.764 12.2762 154.764 12.8302C154.764 13.3983 154.853 13.9008 155.031 14.3376C155.212 14.7709 155.478 15.1118 155.83 15.3603C156.185 15.6054 156.625 15.7279 157.151 15.7279ZM165.439 17.1767C164.921 17.1767 164.45 17.0791 164.027 16.8838C163.605 16.6849 163.269 16.399 163.021 16.0262C162.772 15.6498 162.648 15.1952 162.648 14.6625C162.648 14.1938 162.74 13.8138 162.925 13.5226C163.109 13.2279 163.356 12.9971 163.665 12.8302C163.974 12.6633 164.315 12.539 164.688 12.4573C165.064 12.3721 165.443 12.3046 165.822 12.2549C166.32 12.191 166.723 12.143 167.032 12.1111C167.344 12.0755 167.571 12.0169 167.713 11.9353C167.859 11.8536 167.932 11.7115 167.932 11.5091V11.4665C167.932 10.941 167.788 10.5326 167.5 10.2414C167.216 9.95018 166.785 9.80459 166.206 9.80459C165.606 9.80459 165.135 9.93598 164.794 10.1988C164.454 10.4615 164.214 10.7421 164.075 11.0404L162.882 10.6142C163.095 10.1171 163.379 9.73001 163.734 9.45303C164.093 9.17249 164.484 8.97717 164.906 8.86709C165.332 8.75345 165.751 8.69663 166.163 8.69663C166.426 8.69663 166.728 8.72859 167.069 8.79251C167.413 8.85288 167.745 8.97895 168.065 9.17071C168.388 9.36247 168.656 9.65189 168.869 10.039C169.082 10.426 169.189 10.9445 169.189 11.5944V16.985H167.932V15.877H167.868C167.783 16.0546 167.641 16.2446 167.442 16.447C167.243 16.6494 166.978 16.8216 166.648 16.9637C166.318 17.1057 165.915 17.1767 165.439 17.1767ZM165.631 16.0475C166.128 16.0475 166.547 15.9498 166.888 15.7545C167.232 15.5592 167.492 15.3071 167.666 14.9981C167.843 14.6892 167.932 14.3642 167.932 14.0233V12.8728C167.879 12.9367 167.761 12.9953 167.58 13.0486C167.403 13.0983 167.197 13.1427 166.962 13.1817C166.732 13.2172 166.506 13.2492 166.286 13.2776C166.069 13.3025 165.894 13.3238 165.759 13.3415C165.432 13.3841 165.126 13.4534 164.842 13.5493C164.562 13.6416 164.335 13.7819 164.161 13.9701C163.99 14.1547 163.905 14.4069 163.905 14.7265C163.905 15.1633 164.066 15.4935 164.39 15.7172C164.716 15.9374 165.13 16.0475 165.631 16.0475ZM174.573 17.1554C173.891 17.1554 173.289 16.9832 172.767 16.6387C172.245 16.2907 171.837 15.8007 171.542 15.1686C171.247 14.5329 171.1 13.7819 171.1 12.9154C171.1 12.056 171.247 11.3103 171.542 10.6782C171.837 10.0461 172.247 9.55778 172.773 9.21332C173.298 8.86886 173.905 8.69663 174.594 8.69663C175.127 8.69663 175.548 8.78541 175.857 8.96297C176.169 9.13697 176.407 9.33584 176.57 9.55956C176.737 9.77973 176.867 9.96084 176.959 10.1029H177.066V6.07589H178.323V16.985H177.108V15.7279H176.959C176.867 15.877 176.736 16.0652 176.565 16.2925C176.395 16.5162 176.151 16.7169 175.835 16.8944C175.519 17.0684 175.099 17.1554 174.573 17.1554ZM174.743 16.0262C175.248 16.0262 175.674 15.8948 176.022 15.632C176.37 15.3657 176.634 14.9981 176.815 14.5294C176.997 14.0571 177.087 13.512 177.087 12.8941C177.087 12.2833 176.998 11.7488 176.821 11.2907C176.643 10.8291 176.38 10.4704 176.032 10.2147C175.684 9.95551 175.255 9.82589 174.743 9.82589C174.211 9.82589 173.767 9.96261 173.412 10.2361C173.06 10.5059 172.796 10.8735 172.618 11.3387C172.444 11.8003 172.357 12.3188 172.357 12.8941C172.357 13.4765 172.446 14.0056 172.623 14.4814C172.804 14.9537 173.071 15.3302 173.422 15.6107C173.777 15.8877 174.218 16.0262 174.743 16.0262ZM181.716 17.0702C181.453 17.0702 181.228 16.9761 181.04 16.7879C180.851 16.5997 180.757 16.3742 180.757 16.1114C180.757 15.8486 180.851 15.6231 181.04 15.4349C181.228 15.2467 181.453 15.1526 181.716 15.1526C181.979 15.1526 182.204 15.2467 182.393 15.4349C182.581 15.6231 182.675 15.8486 182.675 16.1114C182.675 16.2854 182.63 16.4452 182.542 16.5908C182.456 16.7364 182.341 16.8536 182.195 16.9424C182.053 17.0276 181.894 17.0702 181.716 17.0702ZM187.338 17.1767C186.82 17.1767 186.349 17.0791 185.927 16.8838C185.504 16.6849 185.169 16.399 184.92 16.0262C184.671 15.6498 184.547 15.1952 184.547 14.6625C184.547 14.1938 184.64 13.8138 184.824 13.5226C185.009 13.2279 185.256 12.9971 185.565 12.8302C185.874 12.6633 186.214 12.539 186.587 12.4573C186.964 12.3721 187.342 12.3046 187.722 12.2549C188.219 12.191 188.622 12.143 188.931 12.1111C189.244 12.0755 189.471 12.0169 189.613 11.9353C189.758 11.8536 189.831 11.7115 189.831 11.5091V11.4665C189.831 10.941 189.687 10.5326 189.4 10.2414C189.116 9.95018 188.684 9.80459 188.105 9.80459C187.505 9.80459 187.035 9.93598 186.694 10.1988C186.353 10.4615 186.113 10.7421 185.975 11.0404L184.782 10.6142C184.995 10.1171 185.279 9.73001 185.634 9.45303C185.993 9.17249 186.383 8.97717 186.806 8.86709C187.232 8.75345 187.651 8.69663 188.063 8.69663C188.326 8.69663 188.627 8.72859 188.968 8.79251C189.313 8.85288 189.645 8.97895 189.964 9.17071C190.288 9.36247 190.556 9.65189 190.769 10.039C190.982 10.426 191.088 10.9445 191.088 11.5944V16.985H189.831V15.877H189.767C189.682 16.0546 189.54 16.2446 189.341 16.447C189.142 16.6494 188.878 16.8216 188.548 16.9637C188.217 17.1057 187.814 17.1767 187.338 17.1767ZM187.53 16.0475C188.027 16.0475 188.446 15.9498 188.787 15.7545C189.132 15.5592 189.391 15.3071 189.565 14.9981C189.743 14.6892 189.831 14.3642 189.831 14.0233V12.8728C189.778 12.9367 189.661 12.9953 189.48 13.0486C189.302 13.0983 189.096 13.1427 188.862 13.1817C188.631 13.2172 188.406 13.2492 188.185 13.2776C187.969 13.3025 187.793 13.3238 187.658 13.3415C187.331 13.3841 187.026 13.4534 186.742 13.5493C186.461 13.6416 186.234 13.7819 186.06 13.9701C185.89 14.1547 185.804 14.4069 185.804 14.7265C185.804 15.1633 185.966 15.4935 186.289 15.7172C186.616 15.9374 187.029 16.0475 187.53 16.0475ZM193.383 16.985V8.80317H194.64V16.985H193.383ZM194.022 7.43953C193.777 7.43953 193.566 7.35608 193.388 7.18918C193.214 7.02227 193.127 6.82163 193.127 6.58726C193.127 6.35288 193.214 6.15224 193.388 5.98534C193.566 5.81844 193.777 5.73499 194.022 5.73499C194.267 5.73499 194.477 5.81844 194.651 5.98534C194.828 6.15224 194.917 6.35288 194.917 6.58726C194.917 6.82163 194.828 7.02227 194.651 7.18918C194.477 7.35608 194.267 7.43953 194.022 7.43953Z" fill="white"/>
<path d="M110.13 25.2949C117.011 25.2949 122.59 19.7164 122.59 12.835C122.59 5.95349 117.011 0.375 110.13 0.375C103.249 0.375 97.67 5.95349 97.67 12.835C97.67 19.7164 103.249 25.2949 110.13 25.2949Z" stroke="#24AA4D" stroke-width="0.75" stroke-miterlimit="10"/>
<path d="M112.12 21.995H108.07C108.14 21.935 108.21 21.8849 108.27 21.8449C108.66 21.5349 108.98 21.1549 109.22 20.7249C109.48 20.2549 109.65 19.7449 109.71 19.2049C109.73 19.0549 109.73 18.915 109.73 18.765C109.73 16.815 109.73 14.865 109.73 12.915C109.73 12.515 109.65 12.125 109.53 11.745C109.36 11.215 109.07 10.7449 108.69 10.3249C108.57 10.1849 108.43 10.0649 108.29 9.94491C107.95 9.64491 107.55 9.43499 107.12 9.27499C107.06 9.25499 107 9.23494 106.94 9.22494C106.79 9.18494 106.71 9.0949 106.7 8.9349C106.7 8.7949 106.74 8.67493 106.83 8.58493C106.91 8.50493 107 8.49498 107.1 8.51498C107.77 8.66498 108.32 9.03493 108.84 9.46493C108.97 9.57493 109.09 9.68491 109.2 9.81491C109.53 10.1949 109.83 10.6149 110.03 11.0849C110.04 11.1149 110.06 11.1449 110.07 11.1749C110.07 11.1749 110.07 11.1749 110.07 11.1849C110.16 10.9749 110.26 10.7749 110.38 10.5849C110.53 10.3349 110.71 10.105 110.89 9.88497C111.15 9.58497 111.45 9.32495 111.77 9.10495C111.83 9.06495 111.9 9.02495 111.96 8.98495C112.09 8.89495 112.21 8.89497 112.34 9.00497C112.46 9.10497 112.53 9.23499 112.5 9.40499C112.49 9.47499 112.44 9.53492 112.38 9.57492C112.26 9.65492 112.12 9.73492 112.01 9.82492C111.54 10.1949 111.15 10.635 110.87 11.165C110.65 11.585 110.52 12.025 110.46 12.495C110.44 12.645 110.43 12.7849 110.43 12.9349C110.43 14.9149 110.43 16.895 110.43 18.875C110.43 19.345 110.53 19.805 110.71 20.245C110.96 20.865 111.33 21.3849 111.85 21.8149C111.93 21.8749 112 21.935 112.09 22.005L112.12 21.995Z" fill="#24AA4D"/>
<path d="M117.6 14.015C117.59 14.415 117.6 14.775 117.6 15.145C117.6 15.325 117.51 15.4349 117.33 15.4649C117.26 15.4749 117.19 15.4749 117.12 15.4649C116.96 15.4249 116.87 15.315 116.87 15.145C116.87 14.825 116.87 14.4949 116.88 14.1749C116.88 13.7949 116.88 13.415 116.88 13.035C116.88 12.555 116.75 12.1049 116.5 11.6949C116.19 11.1749 115.75 10.8249 115.19 10.6149C114.82 10.4849 114.44 10.4449 114.05 10.4949C113.53 10.5649 113.08 10.785 112.69 11.135C112.38 11.425 112.16 11.7749 112.02 12.1749C111.92 12.4449 111.88 12.735 111.89 13.025C111.89 13.245 111.89 13.4549 111.89 13.6749C111.89 13.8549 111.81 13.965 111.63 14.005C111.48 14.035 111.35 14.015 111.23 13.905C111.18 13.855 111.16 13.7949 111.16 13.7249C111.16 13.4249 111.16 13.1249 111.16 12.8249C111.17 12.4349 111.27 12.0649 111.43 11.7049C111.76 10.9449 112.31 10.3949 113.06 10.0449C113.22 9.96487 113.4 9.91494 113.57 9.86494C114.07 9.71494 114.59 9.70491 115.09 9.83491C116.08 10.0949 116.82 10.6849 117.27 11.6149C117.45 11.9949 117.57 12.3949 117.59 12.8249C117.61 13.2349 117.59 13.635 117.59 14.015H117.6Z" fill="#24AA4D"/>
<path d="M108.26 13.6949C108.26 13.3249 108.26 12.995 108.25 12.665C108.23 12.335 108.14 12.0149 107.99 11.7249C107.72 11.1849 107.31 10.8049 106.76 10.5549C106.51 10.4449 106.24 10.3749 105.96 10.3549C105.35 10.3049 104.79 10.4649 104.3 10.8349C104.01 11.0449 103.78 11.315 103.61 11.625C103.5 11.835 103.41 12.055 103.34 12.275C103.28 12.435 103.17 12.515 103 12.495C102.83 12.475 102.68 12.3649 102.64 12.2349C102.63 12.1949 102.62 12.155 102.64 12.115C102.74 11.835 102.8 11.535 102.95 11.275C103.15 10.915 103.42 10.615 103.75 10.365C104.02 10.155 104.31 10.005 104.62 9.86495C104.97 9.70495 105.34 9.62495 105.72 9.61495C106.13 9.60495 106.53 9.66491 106.91 9.82491C107.44 10.0449 107.91 10.3649 108.27 10.8249C108.6 11.2349 108.82 11.7049 108.92 12.2249C108.97 12.4849 108.99 12.735 108.99 12.995C108.99 13.535 108.99 14.075 108.99 14.625C108.99 14.825 108.87 14.9549 108.67 14.9649C108.6 14.9649 108.53 14.9649 108.46 14.9349C108.33 14.8849 108.27 14.785 108.27 14.655C108.27 14.325 108.27 13.9949 108.27 13.7049L108.26 13.6949Z" fill="#24AA4D"/>
<path d="M119.02 12.845C119.02 12.895 119.02 12.955 119.02 13.005C119.02 13.105 118.98 13.185 118.9 13.235C118.77 13.335 118.54 13.325 118.41 13.235C118.33 13.175 118.29 13.085 118.29 12.985C118.3 12.495 118.19 12.0249 118.01 11.5749C117.75 10.9049 117.32 10.355 116.76 9.89501C116.33 9.54501 115.85 9.31503 115.33 9.16503C114.97 9.06503 114.61 9.02491 114.24 9.04491C113.89 9.06491 113.54 9.11496 113.21 9.22496C113.04 9.28496 112.92 9.23495 112.83 9.08495C112.76 8.96495 112.73 8.82492 112.79 8.68492C112.82 8.61492 112.88 8.56491 112.95 8.54491C113.52 8.35491 114.11 8.28494 114.71 8.32494C115.48 8.37494 116.2 8.61501 116.85 9.02501C117.19 9.24501 117.51 9.49491 117.78 9.79491C118.26 10.3349 118.63 10.935 118.84 11.635C118.96 12.035 119.03 12.435 119.03 12.845H119.02Z" fill="#24AA4D"/>
<path d="M101.41 11.475C101.52 11.155 101.66 10.845 101.83 10.555C101.97 10.325 102.13 10.1151 102.3 9.90507C102.75 9.36507 103.3 8.975 103.94 8.705C104.01 8.675 104.08 8.675 104.15 8.705C104.31 8.775 104.41 8.98507 104.37 9.15507C104.35 9.24507 104.3 9.30501 104.21 9.34501C103.97 9.45501 103.73 9.58503 103.53 9.74503C103.09 10.095 102.71 10.505 102.43 10.995C102.32 11.185 102.22 11.385 102.15 11.595C102.07 11.805 102.01 12.015 101.97 12.235C101.94 12.375 101.96 12.5251 101.96 12.6651C101.96 13.5151 101.96 14.355 101.96 15.205C101.96 15.455 101.96 15.705 101.96 15.955C101.96 16.095 101.84 16.225 101.7 16.235C101.61 16.235 101.52 16.245 101.43 16.205C101.31 16.155 101.25 16.065 101.25 15.925C101.25 15.265 101.25 14.615 101.25 13.955C101.25 13.845 101.25 13.735 101.25 13.625C101.24 13.595 101.23 13.5551 101.24 13.5251C101.24 13.3951 101.24 13.265 101.24 13.135C101.24 12.805 101.24 12.465 101.24 12.135C101.24 12.095 101.24 12.045 101.26 12.005C101.28 11.945 101.27 11.885 101.29 11.835C101.29 11.805 101.31 11.775 101.32 11.745C101.32 11.725 101.33 11.715 101.33 11.695C101.33 11.665 101.34 11.635 101.35 11.605C101.35 11.585 101.36 11.575 101.37 11.555C101.39 11.525 101.38 11.485 101.41 11.465V11.475Z" fill="#24AA4D"/>
<path d="M115.44 7.31492C115.44 7.40492 115.4 7.52496 115.29 7.60496C115.23 7.64496 115.16 7.65501 115.09 7.65501C114.81 7.62501 114.54 7.59496 114.26 7.60496C113.67 7.62496 113.09 7.72491 112.54 7.93491C111.76 8.23491 111.07 8.6849 110.5 9.2949C110.37 9.4249 110.26 9.56494 110.15 9.71494C110.11 9.77494 110.11 9.77494 110.07 9.71494C109.79 9.34494 109.46 9.02496 109.1 8.73496C108.98 8.64496 108.87 8.55496 108.74 8.48496C108.52 8.34496 108.54 8.14495 108.66 7.97495C108.76 7.82495 108.91 7.76492 109.04 7.81492C109.12 7.84492 109.18 7.90493 109.25 7.95493C109.53 8.17493 109.82 8.38499 110.07 8.63499C110.1 8.66499 110.11 8.66499 110.15 8.63499C110.35 8.44499 110.56 8.26495 110.78 8.09495C111.45 7.57495 112.2 7.2349 113.02 7.0449C113.6 6.9049 114.19 6.865 114.79 6.895C114.93 6.895 115.07 6.92492 115.2 6.94492C115.35 6.96492 115.45 7.11493 115.45 7.32493L115.44 7.31492Z" fill="#24AA4D"/>
<path d="M107.36 6.09503C107.36 5.95503 107.4 5.80503 107.56 5.71503C107.62 5.68503 107.68 5.67501 107.74 5.69501C108.21 5.80501 108.67 5.955 109.1 6.185C109.43 6.365 109.76 6.54508 110.06 6.76508C110.09 6.78508 110.11 6.79508 110.15 6.76508C110.42 6.57508 110.7 6.41508 110.98 6.26508C111.52 5.98508 112.07 5.74508 112.63 5.52508C112.99 5.38508 113.36 5.29508 113.74 5.26508C113.93 5.24508 114.05 5.32508 114.1 5.51508C114.15 5.69508 114.1 5.86501 113.97 5.94501C113.92 5.97501 113.86 5.98506 113.81 5.99506C113.51 6.02506 113.23 6.12505 112.96 6.23505C112.55 6.40505 112.13 6.55504 111.72 6.72504C111.16 6.96504 110.64 7.27509 110.17 7.65509C110.12 7.69509 110.09 7.70509 110.04 7.65509C109.58 7.27509 109.06 6.98504 108.53 6.72504C108.23 6.58504 107.92 6.44505 107.6 6.36505H107.58C107.4 6.34505 107.39 6.25504 107.38 6.10504L107.36 6.09503Z" fill="#24AA4D"/>
<path d="M108.67 15.275C108.67 15.275 108.74 15.2749 108.77 15.2949C108.91 15.3349 108.99 15.445 108.99 15.595C108.99 16.595 108.99 17.5949 108.99 18.5849C108.99 18.9049 108.95 19.2249 108.85 19.5449C108.73 19.9449 108.54 20.295 108.29 20.625C108 21.015 107.63 21.305 107.2 21.525C106.87 21.685 106.54 21.835 106.2 21.965C106.18 21.965 106.15 21.985 106.13 21.975C106.13 21.945 106.15 21.9349 106.17 21.9249C106.36 21.7749 106.57 21.645 106.77 21.515C107.09 21.305 107.35 21.035 107.56 20.715C107.85 20.265 108.07 19.785 108.19 19.255C108.24 19.035 108.27 18.8049 108.27 18.5749C108.27 17.5949 108.27 16.615 108.27 15.635C108.27 15.585 108.27 15.535 108.28 15.485C108.33 15.345 108.44 15.285 108.58 15.265C108.61 15.245 108.64 15.245 108.68 15.265L108.67 15.275Z" fill="#24AA4D"/>
<path d="M108.12 8.03499C107.91 7.96499 107.71 7.90493 107.49 7.84493C107.13 7.75493 106.78 7.66494 106.42 7.60494C106.13 7.56494 105.83 7.5549 105.54 7.5649C105.16 7.5749 104.79 7.62494 104.42 7.72494C104.15 7.79494 103.88 7.88499 103.64 8.03499C103.4 8.17499 103.18 8.33495 102.95 8.49495C102.84 8.56495 102.74 8.56495 102.63 8.49495C102.48 8.39495 102.39 8.21489 102.42 8.05489C102.44 7.96489 102.49 7.91495 102.56 7.86495C102.77 7.73495 102.99 7.61497 103.21 7.51497C103.63 7.31497 104.06 7.15488 104.51 7.04488C105.02 6.91488 105.55 6.895 106.08 6.915C106.65 6.935 107.2 7.05494 107.73 7.22494C107.89 7.27494 108.05 7.34497 108.22 7.38497C108.5 7.46497 108.49 7.72497 108.38 7.88497C108.33 7.95497 108.27 8.01498 108.18 8.02498C108.16 8.03498 108.13 8.03498 108.11 8.02498L108.12 8.03499Z" fill="#24AA4D"/>
<path d="M114.09 21.995C113.83 21.955 113.58 21.9049 113.34 21.8249C112.72 21.6049 112.21 21.245 111.82 20.725C111.52 20.325 111.31 19.875 111.22 19.365C111.18 19.135 111.16 18.9149 111.16 18.6849C111.16 18.1449 111.16 17.5949 111.16 17.0549C111.16 16.8549 111.27 16.755 111.43 16.725C111.55 16.695 111.68 16.7249 111.78 16.7949C111.86 16.8549 111.89 16.9449 111.89 17.0449C111.89 17.5949 111.89 18.1449 111.89 18.6949C111.89 19.3449 112.08 19.945 112.38 20.505C112.56 20.835 112.78 21.135 113.06 21.395C113.33 21.655 113.65 21.8349 114.01 21.9449C114.03 21.9449 114.05 21.955 114.07 21.965C114.07 21.965 114.07 21.965 114.09 21.985V21.995Z" fill="#24AA4D"/>
<path d="M102.55 14.9849C102.55 14.3649 102.55 13.755 102.55 13.135C102.55 12.885 102.75 12.7849 102.94 12.7949C102.98 12.7949 103.03 12.7949 103.07 12.8249C103.21 12.8749 103.28 12.9749 103.28 13.1249C103.28 13.7349 103.28 14.3449 103.28 14.9549C103.28 15.5949 103.28 16.2249 103.28 16.8649C103.28 17.0149 103.21 17.1449 103.08 17.1849C102.92 17.2349 102.77 17.2349 102.64 17.1149C102.57 17.0549 102.55 16.9649 102.55 16.8649C102.55 16.2349 102.55 15.6149 102.55 14.9849Z" fill="#24AA4D"/>
<path d="M109.98 3.67493C110.65 3.67493 111.27 3.87497 111.85 4.21497C111.88 4.23497 111.95 4.25502 111.94 4.27502C111.94 4.30502 111.87 4.30494 111.83 4.31494C111.75 4.34494 111.66 4.36502 111.57 4.39502C111.11 4.55502 110.64 4.68502 110.19 4.89502C110.15 4.91502 110.11 4.92503 110.06 4.90503C109.58 4.71503 109.09 4.57493 108.59 4.42493C108.44 4.38493 108.29 4.34492 108.15 4.29492C108.14 4.29492 108.11 4.29502 108.11 4.27502C108.11 4.25502 108.13 4.24499 108.14 4.23499C108.44 4.02499 108.76 3.87502 109.1 3.77502C109.39 3.69502 109.68 3.65503 109.97 3.65503L109.98 3.67493Z" fill="#24AA4D"/>
<path d="M119.03 15.095C119.03 15.475 119.03 15.865 119.03 16.245C119.03 16.395 118.97 16.495 118.83 16.545C118.71 16.585 118.59 16.5851 118.47 16.5251C118.36 16.4751 118.31 16.3851 118.31 16.2651C118.31 15.6351 118.31 14.995 118.31 14.365C118.31 14.235 118.31 14.095 118.31 13.965C118.31 13.785 118.38 13.6851 118.56 13.6451C118.68 13.6151 118.79 13.625 118.89 13.685C118.98 13.735 119.03 13.825 119.03 13.925C119.03 14.315 119.03 14.705 119.03 15.095Z" fill="#24AA4D"/>
<path d="M107.3 4.65503C107.77 4.67503 108.24 4.74501 108.69 4.88501C109.08 5.01501 109.46 5.185 109.82 5.375C110.03 5.485 110.03 5.75502 109.82 5.89502C109.74 5.94502 109.66 5.95493 109.57 5.92493C109.25 5.79493 108.94 5.645 108.62 5.505C108.27 5.345 107.9 5.24497 107.51 5.21497C107.39 5.21497 107.28 5.19495 107.16 5.19495C106.97 5.19495 106.9 5.06494 106.9 4.93494C106.9 4.74494 107.01 4.64502 107.19 4.64502C107.22 4.64502 107.26 4.64502 107.29 4.64502L107.3 4.65503Z" fill="#24AA4D"/>
<path d="M110.52 5.94494C110.4 5.94494 110.31 5.88502 110.26 5.78502C110.21 5.68502 110.23 5.58499 110.3 5.49499C110.34 5.44499 110.38 5.40499 110.44 5.37499C110.78 5.18499 111.12 4.99496 111.48 4.84496C111.79 4.71496 112.12 4.62493 112.45 4.56493C112.55 4.54493 112.65 4.52501 112.75 4.51501C112.91 4.48501 113.02 4.57498 113.04 4.73498C113.06 4.85498 113.04 4.96502 112.92 5.02502C112.87 5.05502 112.82 5.05493 112.76 5.06493C112.37 5.13493 112 5.28494 111.65 5.44494C111.38 5.57494 111.1 5.70496 110.83 5.84496C110.76 5.87496 110.71 5.92494 110.64 5.94494C110.61 5.95494 110.57 5.96496 110.54 5.96496L110.52 5.94494Z" fill="#24AA4D"/>
<path d="M105.18 6.24498C105.12 6.25498 105.05 6.26502 104.99 6.28502C104.88 6.31502 104.8 6.28494 104.73 6.19494C104.63 6.08494 104.6 5.89502 104.68 5.78502C104.71 5.73502 104.76 5.69493 104.82 5.68493C105.31 5.55493 105.82 5.50501 106.33 5.52501C106.51 5.52501 106.69 5.54492 106.88 5.55492C107.01 5.55492 107.08 5.61498 107.11 5.74498C107.14 5.89498 107.12 6.025 107.01 6.135C106.95 6.185 106.89 6.21495 106.8 6.20495C106.44 6.16495 106.08 6.16492 105.72 6.17492C105.56 6.17492 105.4 6.20497 105.24 6.23497C105.24 6.23497 105.22 6.24497 105.21 6.23497C105.19 6.23497 105.18 6.23498 105.17 6.24498H105.18Z" fill="#24AA4D"/>
<path d="M117.59 16.875C117.59 17.145 117.59 17.4049 117.59 17.6749C117.59 17.8049 117.53 17.8949 117.4 17.9449C117.31 17.9749 117.23 17.9849 117.14 17.9649C116.96 17.9249 116.87 17.815 116.87 17.635C116.87 17.135 116.87 16.625 116.87 16.125C116.87 15.855 117.07 15.695 117.34 15.765C117.52 15.805 117.6 15.9049 117.6 16.0949C117.6 16.3549 117.6 16.615 117.6 16.875H117.59Z" fill="#24AA4D"/>
<path d="M111.17 15.365C111.17 15.125 111.17 14.895 111.17 14.655C111.17 14.435 111.3 14.3349 111.47 14.3149C111.56 14.2949 111.66 14.315 111.74 14.365C111.84 14.415 111.89 14.505 111.89 14.615C111.89 15.115 111.89 15.6049 111.89 16.1049C111.89 16.3049 111.73 16.4349 111.51 16.4249C111.44 16.4249 111.38 16.405 111.32 16.375C111.22 16.315 111.16 16.235 111.16 16.115C111.16 15.865 111.16 15.615 111.16 15.365H111.17Z" fill="#24AA4D"/>
<path d="M103.27 18.485C103.27 18.705 103.27 18.9251 103.27 19.1351C103.27 19.3051 103.18 19.395 103.04 19.435C102.93 19.465 102.82 19.4651 102.71 19.4151C102.61 19.3651 102.55 19.2851 102.55 19.1651C102.55 19.0751 102.55 18.9851 102.55 18.8951C102.55 18.5451 102.55 18.185 102.55 17.835C102.55 17.605 102.69 17.505 102.86 17.485C102.95 17.475 103.04 17.4851 103.12 17.5351C103.21 17.5851 103.27 17.6651 103.27 17.7851C103.27 18.0151 103.27 18.245 103.27 18.485Z" fill="#24AA4D"/>
<path d="M116.08 7.125C116.18 7.125 116.27 7.17496 116.37 7.20496C116.67 7.30496 116.95 7.44496 117.23 7.58496C117.29 7.61496 117.35 7.64493 117.42 7.67493C117.54 7.72493 117.6 7.82496 117.6 7.95496C117.6 8.09496 117.54 8.21493 117.43 8.30493C117.33 8.38493 117.22 8.39496 117.11 8.33496C116.94 8.24496 116.77 8.16495 116.61 8.07495C116.41 7.96495 116.21 7.90497 115.99 7.84497C115.83 7.80497 115.74 7.675 115.76 7.505C115.78 7.365 115.83 7.24504 115.96 7.16504C116 7.14504 116.04 7.13501 116.09 7.13501L116.08 7.125Z" fill="#24AA4D"/>
<path d="M105.56 8.255C105.77 8.255 105.97 8.27494 106.17 8.31494C106.32 8.34494 106.4 8.43496 106.43 8.58496C106.45 8.69496 106.43 8.79501 106.37 8.88501C106.31 8.97501 106.23 9.02501 106.13 9.01501C105.97 9.01501 105.81 9.01501 105.65 9.01501C105.44 9.02501 105.23 9.04496 105.03 9.08496C104.86 9.11496 104.72 9.01496 104.67 8.83496C104.61 8.60496 104.72 8.41497 104.94 8.34497C105 8.32497 105.07 8.31492 105.13 8.29492C105.28 8.26492 105.43 8.255 105.57 8.255H105.56Z" fill="#24AA4D"/>
<path d="M116.9 18.9449C116.9 18.8349 116.9 18.735 116.9 18.625C116.9 18.455 116.97 18.3549 117.14 18.3049C117.28 18.2649 117.41 18.285 117.53 18.375C117.6 18.425 117.63 18.5049 117.62 18.5849C117.62 18.8249 117.6 19.0649 117.59 19.3049C117.59 19.4049 117.54 19.475 117.46 19.525C117.33 19.615 117.13 19.615 117 19.535C116.91 19.475 116.87 19.3949 116.87 19.2949C116.87 19.1749 116.87 19.0549 116.87 18.9349H116.89L116.9 18.9449Z" fill="#24AA4D"/>
<path d="M114.45 5.54488C114.45 5.54488 114.45 5.455 114.47 5.415C114.52 5.245 114.64 5.1649 114.81 5.1949C114.89 5.2049 114.98 5.22495 115.06 5.24495C115.14 5.26495 115.21 5.31497 115.25 5.38497C115.34 5.53497 115.32 5.75496 115.21 5.87496C115.15 5.94496 115.07 5.97491 114.98 5.95491C114.88 5.93491 114.79 5.91499 114.69 5.90499C114.57 5.87499 114.47 5.75495 114.45 5.61495C114.45 5.59495 114.45 5.57489 114.45 5.55489V5.54488Z" fill="#24AA4D"/>
<path d="M105.18 6.245C105.18 6.245 105.2 6.22498 105.22 6.22498V6.245C105.21 6.245 105.2 6.245 105.19 6.245H105.18Z" fill="#24AA4D"/>
</svg>
