<svg width="137" height="61" viewBox="0 0 137 61" fill="none" xmlns="http://www.w3.org/2000/svg">
<path d="M14.446 49.12H2.84446V16.3927H14.5419C17.8338 16.3927 20.6676 17.0479 23.0433 18.3583C25.419 19.658 27.2461 21.5277 28.5245 23.9673C29.8136 26.4069 30.4581 29.326 30.4581 32.7244C30.4581 36.1335 29.8136 39.0632 28.5245 41.5135C27.2461 43.9637 25.4084 45.8441 23.0114 47.1544C20.625 48.4648 17.7699 49.12 14.446 49.12ZM9.76385 43.1914H14.1584C16.2038 43.1914 17.9244 42.8292 19.32 42.1047C20.7262 41.3696 21.7809 40.2351 22.484 38.701C23.1978 37.1562 23.5547 35.164 23.5547 32.7244C23.5547 30.3061 23.1978 28.3299 22.484 26.7958C21.7809 25.2617 20.7315 24.1324 19.3359 23.408C17.9403 22.6836 16.2198 22.3213 14.1744 22.3213H9.76385V43.1914ZM35.5837 49.12V16.3927H57.6363V22.0976H42.5031V29.8959H56.5017V35.6008H42.5031V43.4151H57.7002V49.12H35.5837ZM63.1374 16.3927H71.6708L80.6836 38.3814H81.0671L90.0799 16.3927H98.6133V49.12H91.9016V27.8185H91.63L83.1605 48.9602H78.5902L70.1207 27.7386H69.8491V49.12H63.1374V16.3927ZM134.389 32.7564C134.389 36.3253 133.712 39.3615 132.359 41.865C131.017 44.3686 129.185 46.2809 126.862 47.6019C124.55 48.9123 121.951 49.5674 119.064 49.5674C116.155 49.5674 113.545 48.9069 111.234 47.5859C108.922 46.2649 107.095 44.3526 105.752 41.849C104.41 39.3455 103.739 36.3146 103.739 32.7564C103.739 29.1875 104.41 26.1512 105.752 23.6477C107.095 21.1441 108.922 19.2372 111.234 17.9268C113.545 16.6058 116.155 15.9453 119.064 15.9453C121.951 15.9453 124.55 16.6058 126.862 17.9268C129.185 19.2372 131.017 21.1441 132.359 23.6477C133.712 26.1512 134.389 29.1875 134.389 32.7564ZM127.373 32.7564C127.373 30.4446 127.027 28.495 126.335 26.9076C125.653 25.3203 124.689 24.1164 123.442 23.2961C122.196 22.4758 120.736 22.0657 119.064 22.0657C117.391 22.0657 115.932 22.4758 114.685 23.2961C113.439 24.1164 112.469 25.3203 111.777 26.9076C111.095 28.495 110.754 30.4446 110.754 32.7564C110.754 35.0681 111.095 37.0177 111.777 38.6051C112.469 40.1924 113.439 41.3963 114.685 42.2166C115.932 43.0369 117.391 43.4471 119.064 43.4471C120.736 43.4471 122.196 43.0369 123.442 42.2166C124.689 41.3963 125.653 40.1924 126.335 38.6051C127.027 37.0177 127.373 35.0681 127.373 32.7564Z" fill="white"/>
<path d="M4.35365 3.82151H5.96929L9.76823 13.1005H9.89923L13.6982 3.82151H15.3138V15H14.0475V6.50697H13.9383L10.445 15H9.2224L5.72912 6.50697H5.61996V15H4.35365V3.82151ZM20.3204 15.1965C19.7891 15.1965 19.307 15.0964 18.8739 14.8963C18.4409 14.6925 18.0971 14.3996 17.8423 14.0175C17.5876 13.6318 17.4603 13.166 17.4603 12.6202C17.4603 12.1399 17.5549 11.7505 17.7441 11.4521C17.9333 11.1501 18.1862 10.9136 18.5028 10.7426C18.8194 10.5715 19.1687 10.4442 19.5508 10.3605C19.9365 10.2732 20.324 10.204 20.7134 10.1531C21.2228 10.0876 21.6358 10.0385 21.9524 10.0057C22.2726 9.96931 22.5055 9.90927 22.6511 9.82558C22.8002 9.74189 22.8748 9.59633 22.8748 9.38892V9.34526C22.8748 8.80671 22.7275 8.38824 22.4327 8.08986C22.1416 7.79147 21.6995 7.64228 21.1064 7.64228C20.4914 7.64228 20.0093 7.77692 19.6599 8.04619C19.3106 8.31547 19.065 8.60293 18.9231 8.9086L17.7004 8.47194C17.9188 7.9625 18.2099 7.56587 18.5737 7.28204C18.9413 6.99457 19.3415 6.79443 19.7746 6.68163C20.2112 6.56519 20.6406 6.50697 21.0627 6.50697C21.332 6.50697 21.6413 6.53972 21.9906 6.60521C22.3436 6.66707 22.6838 6.79625 23.0113 6.99275C23.3424 7.18925 23.6172 7.48581 23.8355 7.88245C24.0538 8.27908 24.163 8.81035 24.163 9.47625V15H22.8748V13.8647H22.8093C22.722 14.0466 22.5765 14.2413 22.3727 14.4487C22.1689 14.6561 21.8978 14.8326 21.5594 14.9782C21.221 15.1237 20.808 15.1965 20.3204 15.1965ZM20.5169 14.0393C21.0263 14.0393 21.4557 13.9393 21.805 13.7391C22.158 13.539 22.4236 13.2807 22.6019 12.9641C22.7839 12.6475 22.8748 12.3145 22.8748 11.9652V10.7862C22.8203 10.8517 22.7002 10.9118 22.5146 10.9664C22.3327 11.0173 22.1216 11.0628 21.8814 11.1028C21.6449 11.1392 21.4139 11.1719 21.1882 11.2011C20.9663 11.2265 20.7862 11.2484 20.6479 11.2666C20.3131 11.3102 20.0002 11.3812 19.7091 11.4794C19.4216 11.574 19.1887 11.7178 19.0104 11.9106C18.8357 12.0999 18.7484 12.3582 18.7484 12.6857C18.7484 13.1333 18.914 13.4717 19.2451 13.7009C19.5799 13.9265 20.0038 14.0393 20.5169 14.0393ZM32.4527 8.49377L31.2956 8.82126C31.2228 8.62841 31.1154 8.44101 30.9735 8.25906C30.8352 8.07348 30.646 7.92065 30.4059 7.80057C30.1657 7.68049 29.8582 7.62045 29.4834 7.62045C28.9703 7.62045 28.5428 7.73871 28.2007 7.97524C27.8623 8.20812 27.6931 8.50469 27.6931 8.86493C27.6931 9.18515 27.8096 9.43805 28.0424 9.62363C28.2753 9.80921 28.6392 9.96386 29.1341 10.0876L30.3786 10.3932C31.1282 10.5752 31.6867 10.8536 32.0543 11.2284C32.4218 11.5995 32.6055 12.078 32.6055 12.6639C32.6055 13.1442 32.4673 13.5736 32.1907 13.952C31.9178 14.3305 31.5357 14.6288 31.0445 14.8472C30.5532 15.0655 29.9819 15.1747 29.3306 15.1747C28.4755 15.1747 27.7677 14.9891 27.2073 14.6179C26.6469 14.2468 26.2922 13.7046 26.143 12.9914L27.3656 12.6857C27.4821 13.1369 27.7022 13.4753 28.0261 13.7009C28.3536 13.9265 28.7811 14.0393 29.3088 14.0393C29.9092 14.0393 30.3858 13.912 30.7388 13.6573C31.0954 13.3989 31.2737 13.0896 31.2737 12.7294C31.2737 12.4383 31.1718 12.1945 30.9681 11.998C30.7643 11.7978 30.4513 11.6486 30.0292 11.5504L28.6319 11.2229C27.8641 11.041 27.3001 10.7589 26.9399 10.3769C26.5833 9.99115 26.405 9.509 26.405 8.93043C26.405 8.45738 26.5378 8.03891 26.8034 7.67503C27.0727 7.31115 27.4384 7.0255 27.9005 6.81809C28.3663 6.61067 28.8939 6.50697 29.4834 6.50697C30.3131 6.50697 30.9644 6.68891 31.4375 7.05279C31.9142 7.41667 32.2526 7.897 32.4527 8.49377ZM38.1907 6.61613V7.70778H33.8459V6.61613H38.1907ZM35.1122 4.6075H36.4004V12.5984C36.4004 12.9623 36.4531 13.2352 36.5587 13.4171C36.6678 13.5954 36.8061 13.7155 36.9735 13.7774C37.1445 13.8356 37.3246 13.8647 37.5139 13.8647C37.6558 13.8647 37.7722 13.8574 37.8632 13.8429C37.9542 13.8247 38.0269 13.8101 38.0815 13.7992L38.3435 14.9563C38.2562 14.9891 38.1343 15.0218 37.9778 15.0546C37.8213 15.091 37.623 15.1092 37.3829 15.1092C37.019 15.1092 36.6624 15.0309 36.3131 14.8745C35.9674 14.718 35.6799 14.4796 35.4506 14.1594C35.225 13.8392 35.1122 13.4353 35.1122 12.9477V4.6075ZM43.5534 15.1747C42.7456 15.1747 42.0488 14.9964 41.4629 14.6398C40.8807 14.2795 40.4313 13.7774 40.1147 13.1333C39.8018 12.4856 39.6453 11.7323 39.6453 10.8736C39.6453 10.0148 39.8018 9.25792 40.1147 8.60293C40.4313 7.94431 40.8716 7.43123 41.4356 7.06371C42.0033 6.69255 42.6655 6.50697 43.4224 6.50697C43.8591 6.50697 44.2903 6.57974 44.716 6.7253C45.1418 6.87085 45.5293 7.10737 45.8786 7.43487C46.228 7.75872 46.5063 8.18811 46.7137 8.72302C46.9212 9.25792 47.0249 9.91655 47.0249 10.6989V11.2447H40.5623V10.1312H45.7149C45.7149 9.65819 45.6203 9.23609 45.4311 8.86493C45.2455 8.49377 44.9798 8.20084 44.6341 7.98615C44.2921 7.77146 43.8882 7.66411 43.4224 7.66411C42.9093 7.66411 42.4654 7.79147 42.0906 8.04619C41.7194 8.29727 41.4338 8.62477 41.2337 9.02868C41.0335 9.43259 40.9335 9.86561 40.9335 10.3277V11.0701C40.9335 11.7032 41.0426 12.2399 41.261 12.6802C41.4829 13.1169 41.7904 13.4499 42.1834 13.6791C42.5764 13.9047 43.0331 14.0175 43.5534 14.0175C43.8918 14.0175 44.1975 13.9702 44.4704 13.8756C44.747 13.7774 44.9853 13.6318 45.1854 13.4389C45.3856 13.2424 45.5402 12.9986 45.6494 12.7075L46.8939 13.0569C46.7629 13.479 46.5427 13.8501 46.2334 14.1703C45.9241 14.4869 45.542 14.7344 45.0872 14.9127C44.6323 15.0873 44.1211 15.1747 43.5534 15.1747ZM48.9844 15V6.61613H50.2289V7.88245H50.3162C50.469 7.46762 50.7456 7.13103 51.1458 6.87267C51.5461 6.61431 51.9973 6.48513 52.4995 6.48513C52.5941 6.48513 52.7124 6.48695 52.8543 6.49059C52.9962 6.49423 53.1035 6.49969 53.1763 6.50697V7.81695C53.1326 7.80603 53.0326 7.78965 52.8761 7.76782C52.7233 7.74235 52.5613 7.72961 52.3903 7.72961C51.9828 7.72961 51.6189 7.81513 51.2987 7.98615C50.9821 8.15354 50.731 8.38642 50.5454 8.68481C50.3635 8.97955 50.2725 9.31614 50.2725 9.69458V15H48.9844Z" fill="white"/>
</svg>
